<svg width="200" height="200" xmlns="http://www.w3.org/2000/svg">
 <g>
  <title>Layer 1</title>
  <path stroke-width="10" id="svg_2" d="m69.19853,107.50205c-4.77569,35.22186 -13.67636,-0.20365 -45.37886,22.07359c-31.7025,22.27724 22.24004,72.086 44.8067,33.73578c22.56667,-38.35022 60.97476,-24.60203 44.32292,0.43415c-16.65185,25.03618 56.1686,-9.43611 47.89177,-24.12032c-8.27683,-14.68421 25.65753,-20.92497 19.76121,-34.14333c-5.89631,-13.21836 -63.96903,-24.96372 -48.08614,-38.78386c15.8829,-13.82014 46.69011,5.47257 50.81562,-27.19736c4.12551,-32.66993 -40.95235,13.24291 -58.70351,0.13698c-17.75116,-13.10593 5.9129,-28.51751 -9.45443,-28.41794c-15.36733,0.09957 -55.45198,-9.64332 -65.4104,17.16307c-9.95842,26.80639 -28.47157,25.21259 -31.75994,59.29721c-3.28837,34.08462 55.97074,-15.39984 51.19505,19.82203z" opacity="NaN" stroke="#ff00e9" fill="#ff00e9"/>
 </g>

</svg>